<?xml version="1.0" encoding="utf-8"?>
<!-- Generator: Adobe Illustrator 26.4.1, SVG Export Plug-In . SVG Version: 6.00 Build 0)  -->
<svg version="1.1" id="Layer_1" xmlns="http://www.w3.org/2000/svg" xmlns:xlink="http://www.w3.org/1999/xlink" x="0px" y="0px"
	 viewBox="0 0 101 101" style="enable-background:new 0 0 101 101;" xml:space="preserve">
<style type="text/css">
	.st0{fill:#FFFFFF;}
</style>
<path class="st0" d="M34.5,74H7.6c-0.8,0-1.5-0.7-1.5-1.5c0-14.8,11.8-26.9,26.4-26.9c0.8,0,1.5,0.7,1.5,1.5s-0.7,1.5-1.5,1.5
	C20,48.7,9.8,58.5,9.1,71h25.4c0.8,0,1.5,0.7,1.5,1.5S35.3,74,34.5,74z"/>
<path class="st0" d="M32.5,41C23.4,41,16,33.6,16,24.5S23.4,8,32.5,8S49,15.4,49,24.5C49,33.6,41.6,41,32.5,41z M32.5,11
	C25,11,19,17,19,24.5S25,38,32.5,38S46,32,46,24.5C46,17,40,11,32.5,11z"/>
<path class="st0" d="M32.5,58.1c-5.3,0-10.5-1.4-15-4.2c-0.7-0.4-0.9-1.4-0.5-2.1s1.4-0.9,2.1-0.5l0,0c4.1,2.5,8.8,3.7,13.5,3.7
	c0.8,0,1.5,0.7,1.5,1.5S33.3,58.1,32.5,58.1L32.5,58.1z"/>
<path class="st0" d="M45.5,22.4c-3.2,0.1-6.4-1.1-8.7-3.4c-3,1.7-11.4,5.4-18.3,0.1c-0.7-0.5-0.8-1.5-0.3-2.1s1.5-0.8,2.1-0.3
	c6.6,5.1,15.8-0.9,15.9-0.9c0.7-0.5,1.6-0.3,2.1,0.4c0,0,0,0,0,0c0.1,0.1,2.2,3.2,7.1,3.2c0.8,0,1.5,0.7,1.5,1.5
	S46.3,22.4,45.5,22.4L45.5,22.4z"/>
<path class="st0" d="M95.5,63h-27c-0.8,0-1.5-0.7-1.5-1.5s0.7-1.5,1.5-1.5h25.4c-0.7-8.3-7.6-14.8-15.9-14.9c-3.4,0-6.8,1.1-9.5,3.2
	c-0.7,0.5-1.6,0.3-2.1-0.4c-0.5-0.6-0.3-1.5,0.3-2c3.3-2.5,7.2-3.8,11.3-3.8c10.6,0.1,19.1,8.8,19,19.4C97,62.3,96.3,63,95.5,63z"/>
<path class="st0" d="M78,39c-7.2,0-13-5.8-13-13s5.8-13,13-13s13,5.8,13,13S85.2,39,78,39z M78,16c-5.5,0-10,4.5-10,10s4.5,10,10,10
	s10-4.5,10-10S83.5,16,78,16z"/>
<path class="st0" d="M85.7,27.4c-6.4-0.1-11.8-4.7-12.7-11c-0.1-0.8,0.5-1.6,1.3-1.7c0.8-0.1,1.6,0.5,1.7,1.3
	c0.8,5.4,5.9,9.1,11.3,8.3c0.6-0.1,1.2-0.2,1.7-0.4c0.8-0.3,1.6,0.1,1.9,0.9c0.3,0.8-0.1,1.6-0.9,1.9C88.6,27.2,87.2,27.4,85.7,27.4
	z"/>
<path class="st0" d="M92.5,52c-0.8,0-1.5-0.7-1.5-1.5c0-0.3,0.1-0.6,0.3-0.9c3.2-4.2,1.4-8.3-0.6-13c-1.3-3.2-2.8-6.5-2.8-10.1
	c0-0.8,0.7-1.5,1.5-1.5s1.5,0.7,1.5,1.5c0,3,1.3,6,2.5,8.9c2.2,5.1,4.4,10.4,0.2,16C93.4,51.8,93,52,92.5,52z"/>
<path class="st0" d="M62.2,41.9c-0.2,0-0.3,0-0.5-0.1c-0.8-0.2-1.2-1-1-1.8c0,0,0,0,0,0c0-0.1,0.2-0.5,0.4-1c1-2.3,3.8-9.2,3.8-12.4
	c0-0.8,0.7-1.5,1.5-1.5s1.5,0.7,1.5,1.5c0,3.4-2.3,9.4-4.1,13.6c-0.2,0.4-0.3,0.7-0.3,0.8C63.4,41.5,62.8,41.9,62.2,41.9z"/>
<path class="st0" d="M68.7,92h-35c-0.8,0-1.5-0.7-1.5-1.5c0-10.5,8.5-19,19-19s19,8.5,19,19C70.2,91.3,69.5,92,68.7,92z M35.3,89
	h31.9c-0.8-8.8-8.6-15.3-17.4-14.5C42.1,75.2,36,81.3,35.3,89z"/>
<path class="st0" d="M51,68c-7.2,0-13-5.8-13-13s5.8-13,13-13s13,5.8,13,13S58.2,68,51,68z M51,45c-5.5,0-10,4.5-10,10s4.5,10,10,10
	s10-4.5,10-10S56.5,45,51,45z"/>
<path class="st0" d="M51.2,81.4c-3.9,0-7.7-1-11-3c-0.7-0.4-0.9-1.4-0.5-2.1s1.4-0.9,2.1-0.5c5.8,3.5,13,3.5,18.9,0
	c0.7-0.4,1.6-0.2,2.1,0.5s0.2,1.6-0.5,2.1C58.9,80.3,55.1,81.4,51.2,81.4z"/>
<path class="st0" d="M41.4,50.6C47.1,55,53.6,50,53.6,50s4.3,4.7,7.5,0.4"/>
<path class="st0" d="M46.7,53.9c-2.2,0-4.4-0.7-6.2-2.1c-0.7-0.5-0.8-1.5-0.3-2.1s1.5-0.8,2.1-0.3c4.6,3.6,10.1-0.4,10.4-0.6
	c0.6-0.5,1.5-0.4,2,0.2c0.5,0.5,2,1.8,3.3,1.7c0.8-0.1,1.5-0.5,1.9-1.2c0.5-0.7,1.4-0.8,2.1-0.3c0.7,0.5,0.8,1.4,0.3,2.1
	c-0.9,1.4-2.5,2.3-4.1,2.4c-1.7,0-3.4-0.6-4.7-1.8C51.4,53.2,49.1,53.8,46.7,53.9z"/>
</svg>
